<svg width="53" height="53" viewBox="0 0 53 53" fill="none" xmlns="http://www.w3.org/2000/svg">
<circle cx="26.4141" cy="26.4141" r="26.4141" transform="rotate(-90 26.4141 26.4141)" fill="#1262AE" fill-opacity="0.08"/>
<circle cx="26.4141" cy="26.4141" r="21.2997" transform="rotate(-90 26.4141 26.4141)" fill="#1262AE" fill-opacity="0.1"/>
<circle cx="26.4141" cy="26.4141" r="15" transform="rotate(-90 26.4141 26.4141)" fill="#1262AE"/>
<path fill-rule="evenodd" clip-rule="evenodd" d="M23.6287 20.2823C23.5044 19.8472 23.831 19.4141 24.2835 19.4141C24.5073 19.4141 24.7169 19.5241 24.844 19.7083L28.5578 25.0892L32.3232 25.2681C32.9339 25.2972 33.4141 25.8007 33.4141 26.4121C33.4141 27.0446 32.9014 27.5573 32.2689 27.5573L28.5578 27.5573L24.8434 33.1113C24.7169 33.3005 24.5043 33.4141 24.2768 33.4141C23.8261 33.4141 23.4995 32.9847 23.6198 32.5504L25.0029 27.5573L21.2715 27.5573L20.2767 29.5971C20.2006 29.7532 20.0421 29.8522 19.8684 29.8522C19.6175 29.8522 19.4141 29.6488 19.4141 29.3979L19.4141 23.1501C19.4141 22.9265 19.5929 22.7439 19.8165 22.7391C19.9743 22.7358 20.1202 22.8231 20.1917 22.9639L21.2715 25.0892L25.0029 25.0892L23.6287 20.2823Z" fill="white"/>
</svg>
