<svg width="25" height="25" viewBox="0 0 25 25" fill="none" xmlns="http://www.w3.org/2000/svg">
<g opacity="0.8">
<mask id="mask0_1_1287" style="mask-type:alpha" maskUnits="userSpaceOnUse" x="2" y="0" width="21" height="25">
<path d="M19.8993 3.03267C18.0105 1.14497 15.4992 0.105377 12.8282 0.105377C10.1571 0.105377 7.64588 1.14497 5.75713 3.03267C3.86834 4.92038 2.82822 7.43021 2.82822 10.0998C2.82822 11.865 3.34281 13.7028 4.35761 15.5623C5.14672 17.0082 6.24068 18.4733 7.60906 19.9169C9.91518 22.3498 12.1942 23.8787 12.2901 23.9425C12.453 24.0511 12.6406 24.1054 12.8282 24.1054C13.0158 24.1054 13.2034 24.0511 13.3663 23.9425C13.4622 23.8786 15.7413 22.3498 18.0474 19.9169C19.4158 18.4733 20.5097 17.0082 21.2988 15.5623C22.3136 13.7028 22.8282 11.865 22.8282 10.0998C22.8282 7.43021 21.788 4.92038 19.8993 3.03267ZM12.8282 2.04431C17.2725 2.04431 20.8882 5.658 20.8882 10.0998C20.8882 15.5623 14.7117 20.5508 12.8282 21.9446C10.944 20.5502 4.76827 15.5619 4.76827 10.0998C4.76827 5.658 8.38391 2.04431 12.8282 2.04431ZM12.8282 6.12202C10.6337 6.12202 8.84818 7.90646 8.84818 10.0998C8.84818 12.2932 10.6336 14.0776 12.8282 14.0776C15.0228 14.0776 16.8082 12.2932 16.8082 10.0998C16.8082 7.90646 15.0227 6.12202 12.8282 6.12202ZM12.8282 8.061C13.9531 8.061 14.8681 8.97563 14.8681 10.0998C14.8681 11.224 13.9531 12.1387 12.8282 12.1387C11.7034 12.1387 10.7882 11.224 10.7882 10.0998C10.7882 8.97563 11.7034 8.061 12.8282 8.061Z" fill="white"/>
</mask>
<g mask="url(#mask0_1_1287)">
<mask id="mask1_1_1287" style="mask-type:alpha" maskUnits="userSpaceOnUse" x="0" y="0" width="25" height="25">
<path d="M24.8282 0.105377H0.828217V24.1054H24.8282V0.105377Z" fill="white"/>
</mask>
<g mask="url(#mask1_1_1287)">
<path d="M24.8282 0.105377H0.828217V24.1054H24.8282V0.105377Z" fill="#7E8B97"/>
</g>
</g>
</g>
</svg>
