<svg width="25" height="25" viewBox="0 0 25 25" fill="none" xmlns="http://www.w3.org/2000/svg">
<g opacity="0.8">
<path d="M22.7018 3.73598V2.8028C22.7018 1.48566 21.6011 0.414093 20.2481 0.414093H13.4239C12.7684 0.414093 12.1522 0.662577 11.6888 1.1138L2.0375 10.5094C1.574 10.9605 1.31875 11.5604 1.31875 12.1985C1.31875 12.8365 1.574 13.4364 2.0375 13.8876L3.01819 14.8423C2.97664 15.0178 2.95463 15.1989 2.95463 15.3834C2.95463 16.0215 3.20988 16.6214 3.67338 17.0725L10.4975 23.7157C10.9758 24.1813 11.6042 24.4141 12.2325 24.4141C12.8608 24.4141 13.4892 24.1813 13.9675 23.7156L23.6189 14.3199C24.0824 13.8687 24.3377 13.2689 24.3377 12.6308V5.98772C24.3377 4.94972 23.6538 4.06467 22.7018 3.73598ZM3.19418 12.7615C3.03971 12.6111 2.95458 12.4111 2.95458 12.1984C2.95458 11.9857 3.03971 11.7858 3.19418 11.6354L12.8455 2.23978C13 2.08945 13.2054 2.00658 13.4239 2.00658H20.2481C20.6991 2.00658 21.066 2.36376 21.066 2.8028V3.59901H15.0597C14.4042 3.59901 13.7881 3.8475 13.3246 4.29872L3.91293 13.4611L3.19418 12.7615ZM22.4622 13.1939L12.8109 22.5895C12.4919 22.9 11.973 22.8999 11.6542 22.5895L4.83002 15.9464C4.67555 15.796 4.59042 15.5961 4.59042 15.3833C4.59042 15.1706 4.67555 14.9707 4.83002 14.8203L14.4814 5.42466C14.6359 5.27433 14.8412 5.19145 15.0598 5.19145H21.8839C22.3349 5.19145 22.7018 5.54864 22.7018 5.98767V12.6308C22.7018 12.8435 22.6167 13.0435 22.4622 13.1939Z" fill="#7E8B97"/>
<path d="M18.6123 6.78397C17.2593 6.78397 16.1586 7.85553 16.1586 9.17267C16.1586 10.4898 17.2593 11.5614 18.6123 11.5614C19.9653 11.5614 21.066 10.4898 21.066 9.17267C21.066 7.85553 19.9653 6.78397 18.6123 6.78397ZM18.6123 9.96894C18.1613 9.96894 17.7944 9.61175 17.7944 9.17272C17.7944 8.73369 18.1613 8.3765 18.6123 8.3765C19.0633 8.3765 19.4302 8.73369 19.4302 9.17272C19.4302 9.61175 19.0633 9.96894 18.6123 9.96894Z" fill="#7E8B97"/>
</g>
</svg>
