<svg width="25" height="25" viewBox="0 0 25 25" fill="none" xmlns="http://www.w3.org/2000/svg">
<g opacity="0.8">
<path d="M22.0329 11.0099L16.6967 11.0099C16.5801 11.0102 16.4653 10.9807 16.3633 10.9243C16.2613 10.8678 16.1753 10.7864 16.1135 10.6875L10.8001 2.18511C10.7385 2.08657 10.6529 2.00529 10.5513 1.94889C10.4497 1.89249 10.3355 1.86282 10.2193 1.86267L9.19019 1.86267C9.08588 1.86266 8.98294 1.88644 8.88921 1.93219C8.79547 1.97795 8.7134 2.04448 8.64924 2.12672C8.58508 2.20896 8.54052 2.30475 8.51894 2.4068C8.49736 2.50885 8.49934 2.61448 8.52472 2.71565L10.3862 10.1569C10.4116 10.2581 10.4135 10.3637 10.392 10.4658C10.3704 10.5678 10.3258 10.6636 10.2617 10.7459C10.1975 10.8281 10.1154 10.8946 10.0217 10.9404C9.92797 10.9862 9.82503 11.0099 9.72073 11.0099L6.33624 11.0099C6.23855 11.0098 6.14201 10.9889 6.05308 10.9484C5.96415 10.908 5.88487 10.8491 5.82056 10.7755L3.65952 8.30577C3.19988 7.78209 2.34346 8.19486 2.46809 8.87976L3.14385 12.6027C3.15851 12.6836 3.15851 12.7665 3.14385 12.8474L2.46809 16.5703C2.34232 17.2552 3.19988 17.668 3.65838 17.1443L5.81942 14.6745C5.88386 14.6009 5.96332 14.5418 6.05246 14.5014C6.1416 14.461 6.23836 14.4401 6.33624 14.4401L9.72073 14.4401C9.82491 14.4402 9.92772 14.4639 10.0213 14.5096C10.115 14.5553 10.197 14.6217 10.2611 14.7038C10.3252 14.7859 10.3698 14.8816 10.3915 14.9835C10.4132 15.0854 10.4114 15.1909 10.3862 15.292L8.52472 22.7356C8.49955 22.8367 8.49772 22.9422 8.5194 23.0441C8.54107 23.146 8.58566 23.2416 8.6498 23.3237C8.71394 23.4058 8.79593 23.4722 8.88956 23.5179C8.98319 23.5636 9.086 23.5874 9.19018 23.5874L10.2193 23.5874C10.3355 23.5873 10.4497 23.5576 10.5513 23.5012C10.6529 23.4448 10.7385 23.3635 10.8001 23.265L16.1147 14.7626C16.1763 14.6639 16.2621 14.5825 16.364 14.5261C16.4658 14.4697 16.5803 14.4401 16.6967 14.4401L22.0329 14.4401C22.4878 14.4401 22.9241 14.2594 23.2457 13.9378C23.5673 13.6162 23.748 13.1799 23.748 12.725C23.748 12.2702 23.5673 11.8339 23.2457 11.5123C22.9241 11.1906 22.4878 11.0099 22.0329 11.0099V11.0099Z" stroke="#7E8B97" stroke-width="1.5" stroke-linecap="round" stroke-linejoin="round"/>
</g>
</svg>
