<svg width="25" height="25" viewBox="0 0 25 25" fill="none" xmlns="http://www.w3.org/2000/svg">
<g opacity="0.8">
<mask id="mask0_1_1275" style="mask-type:alpha" maskUnits="userSpaceOnUse" x="0" y="0" width="25" height="25">
<path d="M10.9898 0.414093C13.7041 0.414093 16.2559 1.47108 18.1752 3.39037C20.0944 5.30962 21.1514 7.86141 21.1514 10.5757C21.1514 12.9639 20.3331 15.2264 18.8291 17.0428L24.5443 22.7591C24.9229 23.1377 24.9229 23.7515 24.5443 24.1301C24.355 24.3195 24.1069 24.4141 23.8587 24.4141C23.6106 24.4141 23.3625 24.3195 23.1732 24.1301L17.457 18.4149C15.6405 19.9189 13.378 20.7373 10.9898 20.7373C8.27558 20.7373 5.72375 19.6802 3.8045 17.761C1.8852 15.8417 0.828217 13.29 0.828217 10.5757C0.828217 7.86141 1.8852 5.30962 3.8045 3.39037C5.72375 1.47108 8.27553 0.414093 10.9898 0.414093ZM10.9898 2.35303C6.45584 2.35303 2.76715 6.04167 2.76715 10.5757C2.76715 15.1096 6.4558 18.7983 10.9898 18.7983C15.5238 18.7983 19.2124 15.1096 19.2124 10.5757C19.2124 6.04167 15.5238 2.35303 10.9898 2.35303Z" fill="white"/>
</mask>
<g mask="url(#mask0_1_1275)">
<path d="M10.9898 0.414093C13.7041 0.414093 16.2559 1.47108 18.1752 3.39037C20.0944 5.30962 21.1514 7.86141 21.1514 10.5757C21.1514 12.9639 20.3331 15.2264 18.8291 17.0428L24.5443 22.7591C24.9229 23.1377 24.9229 23.7515 24.5443 24.1301C24.355 24.3195 24.1069 24.4141 23.8587 24.4141C23.6106 24.4141 23.3625 24.3195 23.1732 24.1301L17.457 18.4149C15.6405 19.9189 13.378 20.7373 10.9898 20.7373C8.27558 20.7373 5.72375 19.6802 3.8045 17.761C1.8852 15.8417 0.828217 13.29 0.828217 10.5757C0.828217 7.86141 1.8852 5.30962 3.8045 3.39037C5.72375 1.47108 8.27553 0.414093 10.9898 0.414093ZM10.9898 2.35303C6.45584 2.35303 2.76715 6.04167 2.76715 10.5757C2.76715 15.1096 6.4558 18.7983 10.9898 18.7983C15.5238 18.7983 19.2124 15.1096 19.2124 10.5757C19.2124 6.04167 15.5238 2.35303 10.9898 2.35303Z" fill="#7E8B97"/>
<mask id="mask1_1_1275" style="mask-type:alpha" maskUnits="userSpaceOnUse" x="0" y="0" width="25" height="25">
<path d="M24.8282 0.414093H0.828217V24.4141H24.8282V0.414093Z" fill="white"/>
</mask>
<g mask="url(#mask1_1_1275)">
<path d="M24.8282 0.414093H0.828217V24.4141H24.8282V0.414093Z" fill="#7E8B97"/>
</g>
</g>
</g>
</svg>
