<svg width="25" height="25" viewBox="0 0 25 25" fill="none" xmlns="http://www.w3.org/2000/svg">
<g opacity="0.8">
<mask id="mask0_1_1302" style="mask-type:alpha" maskUnits="userSpaceOnUse" x="0" y="0" width="25" height="25">
<path d="M12.8282 15.1391C19.5572 15.1391 24.8282 18.2503 24.8282 22.222V23.4446C24.8282 23.98 24.3932 24.4141 23.8566 24.4141C23.32 24.4141 22.885 23.9801 22.885 23.4446V22.222C22.885 19.4337 18.2796 17.0781 12.8282 17.0781C7.37686 17.0781 2.77144 19.4337 2.77144 22.222V23.4446C2.77144 23.9801 2.33642 24.4141 1.79983 24.4141C1.26324 24.4141 0.828217 23.9801 0.828217 23.4446V22.222C0.828217 18.2503 6.09923 15.1391 12.8282 15.1391ZM12.0197 0.477515C12.5914 0.392952 13.1711 0.392952 13.7427 0.477515C14.9984 0.663327 16.1365 1.23487 17.0341 2.13051C17.9317 3.02616 18.5047 4.1618 18.6908 5.41467C19.1658 8.61103 16.9461 11.5971 13.7427 12.0711C13.4507 12.1143 13.1587 12.1357 12.8688 12.1357C11.6182 12.1357 10.4053 11.7381 9.38238 10.9811C8.12236 10.0486 7.30169 8.68228 7.07159 7.13391C6.59659 3.93755 8.81628 0.951515 12.0197 0.477515ZM12.8813 2.35308C12.6887 2.35308 12.4962 2.36723 12.3049 2.3955C10.1614 2.71266 8.6761 4.7107 8.99396 6.84951C9.14791 7.88555 9.69699 8.7998 10.5401 9.42375C11.3832 10.0477 12.4195 10.3068 13.4577 10.1531C15.6012 9.83597 17.0865 7.83792 16.7687 5.69916C16.513 3.97833 15.1825 2.65069 13.4578 2.3955C13.2666 2.36723 13.074 2.35308 12.8813 2.35308Z" fill="white"/>
</mask>
<g mask="url(#mask0_1_1302)">
<path d="M12.8282 15.1391C19.5572 15.1391 24.8282 18.2503 24.8282 22.222V23.4446C24.8282 23.98 24.3932 24.4141 23.8566 24.4141C23.32 24.4141 22.885 23.9801 22.885 23.4446V22.222C22.885 19.4337 18.2796 17.0781 12.8282 17.0781C7.37686 17.0781 2.77144 19.4337 2.77144 22.222V23.4446C2.77144 23.9801 2.33642 24.4141 1.79983 24.4141C1.26324 24.4141 0.828217 23.9801 0.828217 23.4446V22.222C0.828217 18.2503 6.09923 15.1391 12.8282 15.1391ZM12.0197 0.477515C12.5914 0.392952 13.1711 0.392952 13.7427 0.477515C14.9984 0.663327 16.1365 1.23487 17.0341 2.13051C17.9317 3.02616 18.5047 4.1618 18.6908 5.41467C19.1658 8.61103 16.9461 11.5971 13.7427 12.0711C13.4507 12.1143 13.1587 12.1357 12.8688 12.1357C11.6182 12.1357 10.4053 11.7381 9.38238 10.9811C8.12236 10.0486 7.30169 8.68228 7.07159 7.13391C6.59659 3.93755 8.81628 0.951515 12.0197 0.477515ZM12.8813 2.35308C12.6887 2.35308 12.4962 2.36723 12.3049 2.3955C10.1614 2.71266 8.6761 4.7107 8.99396 6.84951C9.14791 7.88555 9.69699 8.7998 10.5401 9.42375C11.3832 10.0477 12.4195 10.3068 13.4577 10.1531C15.6012 9.83597 17.0865 7.83792 16.7687 5.69916C16.513 3.97833 15.1825 2.65069 13.4578 2.3955C13.2666 2.36723 13.074 2.35308 12.8813 2.35308Z" fill="#7E8B97"/>
<mask id="mask1_1_1302" style="mask-type:alpha" maskUnits="userSpaceOnUse" x="0" y="0" width="25" height="25">
<path d="M24.8282 0.414093H0.828217V24.4141H24.8282V0.414093Z" fill="white"/>
</mask>
<g mask="url(#mask1_1_1302)">
<path d="M24.8282 0.414093H0.828217V24.4141H24.8282V0.414093Z" fill="#7E8B97"/>
</g>
</g>
</g>
</svg>
